<svg height="512" viewBox="0 0 512 512" width="512" xmlns="http://www.w3.org/2000/svg"><g id="BULINE"><circle cx="256.01" cy="256" fill="#4f619d" r="256"/></g><g id="Icons"><path d="m464.68 237.23-3.84-25.87a3.71 3.71 0 0 0 -5.24-2.82l-18.9 8.86a37 37 0 0 0 -43.35-22.65c-4.74 1.16-9.49 2.12-14.22 2.87a168.63 168.63 0 0 1 -22.13 2.06 171.44 171.44 0 0 1 -29.46-1.68 173.12 173.12 0 0 1 -21.87-4.66 172.25 172.25 0 0 1 -27-10.11 173.16 173.16 0 0 1 -42-27.9 171.87 171.87 0 0 1 -43.45-61 173.36 173.36 0 0 1 -8.56-25.89c0-.13-.07-.28-.1-.42a36.76 36.76 0 0 0 -12.32-19.31c-.2-.16-.38-.32-.58-.47l-.19-.15c-.67-.52-1.36-1-2.06-1.49a37 37 0 0 0 -56.61 39.51 244.66 244.66 0 0 0 93.87 140.16q8.63 6.27 17.87 11.88 5.25 3.18 10.63 6.09l2.7 1.43c.72.38 1.44.76 2.17 1.13s1.46.74 2.19 1.1 1.2.61 1.8.9c1.08.53 2.16 1.06 3.26 1.57a244.55 244.55 0 0 0 163.71 16.24 37 37 0 0 0 28.11-33.74l20.49 8.34a3.71 3.71 0 0 0 5.08-3.98z" fill="#7f522f"/><path d="m203.13 114.05-12.23 7.3a11 11 0 0 1 -11.28-18.89l13.64-8.15a169.83 169.83 0 0 0 9.87 19.74z" fill="#623e27"/><path d="m267.25 202.32a11 11 0 0 1 -18.88-11.32l11.05-18.45a174.41 174.41 0 0 0 19.27 10.63z" fill="#623e27"/><path d="m236.71 155.3-13 15.38a11 11 0 1 1 -16.82-14.19l14.34-17a170.78 170.78 0 0 0 15.48 15.81z" fill="#623e27"/><path d="m366.13 232.76a11 11 0 0 1 -10.37-11.59l1.24-21.49a168.63 168.63 0 0 0 22.15-2.06l-1.4 24.79a11 11 0 0 1 -11.62 10.35z" fill="#7b4f2e"/><path d="m302.85 229.28a11 11 0 0 1 -6-14.34l8.84-21.63a173.12 173.12 0 0 0 21.85 4.69l-10.34 25.26a11 11 0 0 1 -14.35 6.02z" fill="#623e27"/><path d="m157.06 112.86a37 37 0 0 1 27.11-44.76l.46-.11a37 37 0 0 0 -36.63-27.69l-.57-23.36a3.72 3.72 0 0 0 -5.68-3.06l-22.22 13.86a3.71 3.71 0 0 0 -.49 5.93l12.43 10.93a37 37 0 0 0 -18.58 41.52 244.81 244.81 0 0 0 111.7 152 250.07 250.07 0 0 0 22.77 12.24 244.63 244.63 0 0 1 -90.3-137.5z" fill="#623e27"/><path d="m471.43 200.36a2.7 2.7 0 0 1 3.61 1.46 57.28 57.28 0 0 1 -104.42 46.81 2.69 2.69 0 0 1 1.31-3.66z" fill="#99112e"/><path d="m379.36 241.64a46.38 46.38 0 1 0 84.64-37.95z" fill="#d93a46"/><path d="m430.41 256.65a5.94 5.94 0 0 0 10.84-4.86c-1.34-3-6.38-7.72-9.37-6.38s-2.81 8.25-1.47 11.24z" fill="#d9727e"/><path d="m459.18 221a5.94 5.94 0 1 0 -4.86-10.84c-3 1.34-7.72 6.37-6.37 9.37s8.24 2.82 11.23 1.47z" fill="#d9727e"/><path d="m451.22 242.94a5.94 5.94 0 0 0 3.67-11.3c-3.12-1-10-.46-11 2.66s4.21 7.62 7.33 8.64z" fill="#d9727e"/><path d="m394.9 249.83a5.94 5.94 0 1 1 -4.9-10.83c3-1.35 9.9-1.53 11.24 1.47s-3.34 8.01-6.34 9.36z" fill="#d9727e"/><path d="m416.57 258.47a5.94 5.94 0 1 1 -10.87-4.78c1.31-3 6.31-7.77 9.31-6.45s2.88 8.22 1.56 11.23z" fill="#d9727e"/><path d="m142.82 242.48a2.7 2.7 0 0 1 1.73 3.49 57.29 57.29 0 0 1 -109.13-34.43 2.69 2.69 0 0 1 3.41-1.87z" fill="#99112e"/><path d="m46.6 212.12a46.38 46.38 0 0 0 88.46 27.88z" fill="#d93a46"/><path d="m74.76 257.27a5.94 5.94 0 0 0 11.33 3.57c1-3.13.37-10-2.76-11s-7.59 4.3-8.57 7.43z" fill="#d9727e"/><path d="m120 249.76a5.94 5.94 0 1 0 3.57-11.33c-3.13-1-10-.36-11 2.76s4.25 7.59 7.43 8.57z" fill="#d9727e"/><path d="m99.42 260.85a5.94 5.94 0 1 0 10.25-6c-1.65-2.83-7.17-7-10-5.33s-1.91 8.48-.25 11.33z" fill="#d9727e"/><path d="m52.77 228.57a5.94 5.94 0 0 1 3.57-11.33c3.13 1 8.41 5.44 7.42 8.57s-7.86 3.75-10.99 2.76z" fill="#d9727e"/><path d="m63.22 249.43a5.94 5.94 0 1 1 -5-10.8c3-1.37 9.88-1.61 11.25 1.37s-3.27 8.06-6.25 9.43z" fill="#d9727e"/><path d="m393.09 363.8h-267.94a36.51 36.51 0 0 1 -36-30.63h340a36.52 36.52 0 0 1 -36.06 30.63z" fill="#c4c4c4"/><rect fill="#fff" height="57.09" rx="28.54" width="478.45" x="15.51" y="276.08"/><path d="m468.19 158-16.68-20.15a3.71 3.71 0 0 0 -5.94.3l-11.57 17.4a37 37 0 0 0 -48.81 3.07q-5.18 5.17-10.68 9.82a169.4 169.4 0 0 1 -17.88 13.24 170.8 170.8 0 0 1 -26.07 13.78 171.4 171.4 0 0 1 -21.12 7.34 172.36 172.36 0 0 1 -28.32 5.33 173.59 173.59 0 0 1 -50.37-2.13 171.88 171.88 0 0 1 -21.4-5.51 171.35 171.35 0 0 1 -47.35-24.16 173.14 173.14 0 0 1 -20.73-17.71l-.31-.31a36.83 36.83 0 0 0 -20.54-10.14l-.74-.1h-.24c-.84-.1-1.69-.17-2.53-.21a38.21 38.21 0 0 0 -5.35.13 37 37 0 0 0 -22.62 63 244.65 244.65 0 0 0 152.89 71.28q10.63.9 21.45.91c4.09 0 8.18-.1 12.24-.3l3.05-.17 2.44-.16c.82-.05 1.64-.12 2.45-.19l2-.16c1.2-.11 2.4-.22 3.6-.35a244.6 244.6 0 0 0 148.44-70.85 37 37 0 0 0 6.57-43.42l21.85-3.47a3.71 3.71 0 0 0 2.27-6.11z" fill="#935d32"/><g fill="#7b4f2e"><path d="m180.66 188.11-6.66 12.58a11 11 0 0 1 -19.43-10.32l7.45-14a170.62 170.62 0 0 0 18.64 11.74z"/><path d="m281.23 230.41a11 11 0 0 1 -22 .11l-.11-21.52a173.61 173.61 0 0 0 22-.88z"/><path d="m230.75 206-3.13 19.88a11 11 0 0 1 -21.73-3.43l3.46-22a171.88 171.88 0 0 0 21.4 5.55z"/><path d="m381.58 205.24a11 11 0 0 1 -14.87-4.55l-10.09-19a169.4 169.4 0 0 0 17.88-13.24l11.64 21.93a11 11 0 0 1 -4.56 14.86z"/><path d="m325.64 235a11 11 0 0 1 -12.57-9.15l-3.64-23.08a171.4 171.4 0 0 0 21.12-7.34l4.25 27a11 11 0 0 1 -9.16 12.57z"/><path d="m140.64 211a37 37 0 0 1 0-52.33l.34-.33a37 37 0 0 0 -45.71-4.69l-12.59-19.74a3.71 3.71 0 0 0 -6.44.32l-11.8 23.35a3.7 3.7 0 0 0 2.66 5.32l16.29 2.91a37 37 0 0 0 5.61 45.19 244.85 244.85 0 0 0 174.28 72.19 251.34 251.34 0 0 0 25.82-1.33 244.62 244.62 0 0 1 -148.46-70.86z"/></g><path d="m220.6 258h-.18a124.29 124.29 0 0 1 -33.08-4.31c-14-3.84-32.15-6.16-52.07-6.16-43.91 0-79.5 11.27-79.5 25.18 0 9.6 17 17.94 41.92 22.19a3 3 0 0 1 2.4 3c0 13.91 23.8 25.18 53.17 25.18 15.56 0 29.55-3.17 39.27-8.21a55.49 55.49 0 0 1 26.36-6.51h1.71c29.37 0 53.17-11.28 53.17-25.19s-23.77-25.17-53.17-25.17z" fill="#c27135"/><path d="m175.57 320.71a104.66 104.66 0 0 1 -22.31 2.29c-29.37 0-53.17-11.27-53.17-25.18a3 3 0 0 0 -2.4-3c-25-4.25-41.92-12.59-41.92-22.19 0-13.91 35.6-25.18 79.5-25.18 7.75 0 15.23.35 22.31 1-33 3.06-57.14 12.72-57.14 24.17 0 9.6 17 17.94 41.92 22.19a3 3 0 0 1 2.4 3c0 10.19 12.62 18.9 30.81 22.9z" fill="#a66532"/><rect fill="#f0c788" height="24.5" rx="12.25" transform="matrix(.905 .426 -.426 .905 122.96 -36.17)" width="51.98" x="116.29" y="244.31"/><rect fill="#f0c788" height="24.5" rx="12.25" transform="matrix(.872 -.49 .49 .872 -104.24 135.13)" width="51.98" x="179.76" y="254.23"/><rect fill="#f0c788" height="24.5" rx="12.25" transform="matrix(.987 -.162 .162 .987 -45.54 30.09)" width="51.98" x="135.35" y="281.41"/><rect fill="#f0c788" height="24.5" rx="12.25" transform="matrix(.96 -.27 .27 .96 -67.78 73.2)" width="51.98" x="210.72" y="274.9"/><rect fill="#f0c788" height="24.5" rx="12.25" transform="matrix(.987 -.162 .162 .987 -42.94 19.93)" width="51.98" x="74.45" y="260.42"/><ellipse cx="344.34" cy="291.29" fill="#f4ebbb" rx="88.33" ry="23.38"/><path d="m363.18 314.11c-6.17.37-12.58.56-19.16.56-48.79 0-88.34-10.47-88.34-23.38s39.55-23.37 88.34-23.37c6.58 0 13 .19 19.16.55-39.57 2.32-69.18 11.65-69.18 22.82s29.61 20.51 69.18 22.82z" fill="#ddd4a8"/><path d="m359.2 258.19h-27.72a35.48 35.48 0 0 0 -33.59 24 8.63 8.63 0 0 0 8.11 11.47h78.62a8.63 8.63 0 0 0 8.14-11.44 35.48 35.48 0 0 0 -33.56-24.03z" fill="#f1ce34"/><path d="m320.14 282.22a8.63 8.63 0 0 0 8.14 11.44h-22.28a8.62 8.62 0 0 1 -8.14-11.44 35.48 35.48 0 0 1 33.58-24h22.26a35.48 35.48 0 0 0 -33.56 24z" fill="#d1b430"/><path d="m488.25 363.8a256.69 256.69 0 0 1 -141.81 131.76h-180.88a256.69 256.69 0 0 1 -141.81-131.76z" fill="#986f4b"/><path d="m461.22 409.06a255.92 255.92 0 0 1 -410.44 0z" fill="#ad7d55"/></g></svg>