<svg id="Capa_1" enable-background="new 0 0 512 512" height="512" viewBox="0 0 512 512" width="512" xmlns="http://www.w3.org/2000/svg"><g><path d="m101.946 418.596c21.559 0 39.037-17.478 39.037-39.037v-30.611c0-21.56-17.477-39.037-39.037-39.037 21.559 0 39.037-17.477 39.037-39.037v-30.611c0-21.559-17.477-39.037-39.037-39.037 21.559 0 39.037-17.477 39.037-39.037v-30.609c0-16.244-9.923-30.166-24.037-36.046v-95.534h-30v95.534c-14.114 5.88-24.037 19.802-24.037 36.046v30.611c0 21.559 17.477 39.037 39.037 39.037-21.559 0-39.037 17.477-39.037 39.037v30.611c0 21.559 17.477 39.037 39.037 39.037-21.559 0-39.037 17.477-39.037 39.037v30.611c0 21.558 17.478 39.035 39.037 39.035z"/><path d="m190.232 441.25-21.645-21.645c-15.245-15.245-39.962-15.245-55.206 0-15.245 15.245-15.245 39.962 0 55.206l21.645 21.645c15.245 15.245 39.962 15.245 55.206 0 15.245-15.244 15.245-39.961 0-55.206z"/><path d="m449.091 162.19v-30.61c0-16.244-9.923-30.166-24.037-36.046v-95.534h-30v95.533c-14.114 5.88-24.037 19.802-24.037 36.046v30.611c0 21.559 17.477 39.037 39.037 39.037-21.559 0-39.037 17.477-39.037 39.037v30.611c0 21.559 17.477 39.037 39.037 39.037-21.559 0-39.037 17.477-39.037 39.037v30.611c0 21.559 17.477 39.037 39.037 39.037 21.559 0 39.037-17.478 39.037-39.037v-30.611c0-21.56-17.477-39.037-39.037-39.037 21.559 0 39.037-17.477 39.037-39.037v-30.611c0-21.559-17.477-39.037-39.037-39.037 21.559 0 39.037-17.477 39.037-39.037z"/><path d="m398.62 419.605c-15.245-15.245-39.962-15.245-55.206 0l-21.645 21.645c-15.245 15.245-15.245 39.962 0 55.206 15.245 15.245 39.962 15.245 55.206 0l21.645-21.645c15.245-15.244 15.245-39.961 0-55.206z"/><path d="m271.298 433.926h-30.611c-21.559 0-39.037 17.477-39.037 39.037 0 21.559 17.477 39.037 39.037 39.037h30.611c21.56 0 39.037-17.477 39.037-39.037 0-21.559-17.478-39.037-39.037-39.037z"/></g></svg>