<svg height="512pt" viewBox="-31 0 512 512.001" width="512pt" xmlns="http://www.w3.org/2000/svg"><path d="m436.152344 470.601562c4.605468-8.917968 6.195312-17.230468 6.398437-24.105468.34375-11.570313-8.480469-21.316406-20.03125-22.066406-9.222656-.597657-17.757812.839843-25.003906 2.996093-15.578125 4.636719-24.164063 21.257813-18.933594 36.648438 2.433594 7.160156 6.199219 14.949219 12.027344 22.128906 7.292969 8.984375 20.347656 10.539063 29.585937 3.566406 5.492188-4.144531 11.347657-10.253906 15.957032-19.167969zm0 0" fill="#a82b2b"/><path d="m86.207031 7.503906c-10.035156 0-18.148437 2.402344-24.351562 5.375-10.4375 5.007813-15.046875 17.320313-10.410157 27.925782 3.703126 8.46875 8.894532 15.390624 14.136719 20.839843 11.273438 11.710938 29.980469 11.710938 41.25 0 5.246094-5.449219 10.4375-12.371093 14.140625-20.839843 4.632813-10.605469.023438-22.917969-10.410156-27.925782-6.203125-2.972656-14.316406-5.375-24.355469-5.375zm0 0" fill="#a82b2b"/><path d="m120.328125 42.210938c-3.640625 7.832031-8.542969 14.292968-13.492187 19.4375-11.277344 11.703124-29.984376 11.703124-41.246094 0-4.183594-4.34375-8.324219-9.613282-11.695313-15.859376 20.847657-9.773437 44.714844-10.363281 66.433594-3.578124zm0 0" fill="#8e2424"/><path d="m422.019531 424.410156c.25 25.53125-9.863281 49.007813-26.589843 66.164063-1.78125-1.167969-3.410157-2.628907-4.820313-4.371094-5.824219-7.179687-9.59375-14.972656-12.023437-22.125-5.234376-15.398437 3.347656-32.015625 18.925781-36.65625 7.121093-2.109375 15.476562-3.539063 24.507812-3.011719zm0 0" fill="#8e2424"/><path d="m334.957031 331.765625c-29.441406-7.046875-56.136719-16.574219-80.503906-35.390625-39.199219-30.273438-61.523437-75.574219-68.742187-124.011719-4.65625-31.265625-.289063-57.925781-21.871094-84.308593-27.875-34.078126-80.976563-45.214844-117.976563-18.867188-49.480469 35.242188-40.324219 111.253906-30.9375 162.625 13.894531 76.035156 52.042969 146.414062 113.714844 194.105469 25.402344 19.640625 53 36.519531 82.242187 49.808593 33.605469 15.269532 71.6875 30.953126 109.292969 28.523438 48.242188-3.117188 84.824219-44.75 81.707031-92.992188-2.484374-38.453124-30.613281-70.804687-66.925781-79.492187zm0 0" fill="#ea4444"/><path d="m326.832031 503.574219c29.441407-15.65625 48.558594-47.527344 46.277344-82.960938-2.480469-38.457031-19.160156-59.292969-55.476563-67.976562-29.4375-7.042969-67.589843-28.089844-91.957031-46.90625-39.195312-30.273438-61.523437-75.570313-68.734375-124.007813-4.664062-31.261718-.292968-57.929687-21.878906-84.308594-19.617188-24-51.75-36.617187-81.960938-32.785156 36.402344-20.277344 84.632813-8.492187 110.742188 23.429688 21.578125 26.378906 17.214844 53.039062 21.867188 84.300781 7.222656 48.4375 29.539062 93.746094 68.746093 124.015625 24.359375 18.816406 51.058594 28.339844 80.5 35.394531 36.3125 8.683594 64.441407 41.035157 66.921875 79.488281 2.972656 45.996094-30.140625 85.992188-75.046875 92.316407zm0 0" fill="#d93131"/><g fill="#f89696"><path d="m147.671875 150.386719c4.496094 10.695312-.53125 23.007812-11.226563 27.503906l-57.179687 24.03125c-10.695313 4.496094-23.011719-.53125-27.503906-11.226563-4.496094-10.695312.53125-23.011718 11.226562-27.503906l57.179688-24.035156c10.695312-4.492188 23.007812.53125 27.503906 11.230469zm0 0"/><path d="m171.011719 246.152344c4.34375 10.757812-.859375 23-11.617188 27.34375l-57.511719 23.214844c-10.761718 4.34375-23.003906-.855469-27.34375-11.617188-4.34375-10.757812.855469-23 11.617188-27.34375l57.511719-23.214844c10.757812-4.34375 23 .855469 27.34375 11.617188zm0 0"/><path d="m226.25 319.496094c4.886719 10.523437.320312 23.015625-10.203125 27.902344l-56.253906 26.125c-10.523438 4.886718-23.015625.320312-27.902344-10.203126-4.886719-10.523437-.316406-23.015624 10.203125-27.902343l56.253906-26.125c10.523438-4.886719 23.015625-.316407 27.902344 10.203125zm0 0"/><path d="m299.039062 382.804688c5.464844 10.234374 1.601563 22.960937-8.632812 28.429687l-54.707031 29.222656c-10.234375 5.464844-22.960938 1.601563-28.425781-8.632812-5.46875-10.234375-1.601563-22.960938 8.628906-28.425781l54.707031-29.222657c10.234375-5.46875 22.960937-1.605469 28.429687 8.628907zm0 0"/></g><path d="m8.582031 187.839844c4.136719-.269532 7.269531-3.839844 7-7.976563-3.347656-51.378906 7.980469-85.582031 34.632813-104.5625 15.914062-11.335937 36.074218-15.578125 56.761718-11.949219 20.003907 3.507813 38.613282 14.242188 51.050782 29.453126 14.703125 17.972656 16.164062 36.292968 17.859375 57.503906.589843 7.417968 1.203125 15.089844 2.402343 23.160156 7.988282 53.609375 33.410157 99.371094 71.578126 128.84375 15.59375 12.042969 37.6875 25.824219 83.34375 36.75 6.878906 1.644531 13.546874 4.25 19.816406 7.746094 1.15625.644531 2.410156.953125 3.648437.953125 2.628907 0 5.183594-1.390625 6.558594-3.851563 2.019531-3.621094.71875-8.191406-2.898437-10.207031-7.46875-4.164063-15.417969-7.269531-23.632813-9.234375-24.070313-5.761719-52.121094-14.308594-77.664063-34.03125-35.085937-27.097656-58.492187-69.421875-65.90625-119.179688-1.125-7.5625-1.71875-14.976562-2.289062-22.144531-1.8125-22.734375-3.527344-44.207031-21.195312-65.8125-11.71875-14.324219-28.039063-25.261719-46.085938-31.199219 1.613281-2.695312 3.046875-5.460937 4.285156-8.296874 6.273438-14.347657.105469-30.90625-14.039062-37.691407-8.460938-4.054687-17.746094-6.113281-27.601563-6.113281-9.851562 0-19.136719 2.058594-27.597656 6.117188-14.144531 6.785156-20.3125 23.339843-14.039063 37.691406 1.964844 4.496094 4.429688 8.824218 7.332032 12.960937-3.59375 1.851563-7.070313 3.941407-10.390625 6.308594-17.265625 12.296875-29.289063 30.164063-35.738281 53.105469-5.121094 18.230468-6.8125 39.378906-5.164063 64.65625.269531 4.136718 3.835937 7.269531 7.972656 7zm56.519531-168.195313c6.417969-3.078125 13.519532-4.640625 21.105469-4.640625 7.589844 0 14.691407 1.5625 21.113281 4.640625 6.820313 3.273438 9.796876 11.246094 6.777344 18.152344-1.59375 3.644531-3.605468 7.167969-5.988281 10.550781-14.460937-2.316406-28.707031-1.382812-41.859375 2.613282-3.257812-4.167969-5.921875-8.570313-7.929688-13.164063-3.019531-6.90625-.042968-14.878906 6.78125-18.152344zm0 0"/><path d="m423.007812 416.941406c-4.429687-.285156-8.917968-.148437-13.441406.378906.007813-2.167968-.054687-4.351562-.195312-6.546874-1.222656-18.941407-8.148438-36.992188-20.023438-52.1875-2.554687-3.265626-7.269531-3.84375-10.535156-1.292969-3.261719 2.550781-3.839844 7.265625-1.289062 10.53125 10.011718 12.8125 15.84375 27.996093 16.875 43.917969 2.84375 44.035156-30.667969 82.175781-74.707032 85.023437-35.855468 2.3125-73.355468-13.171875-105.703125-27.867187-28.15625-12.796876-55.328125-29.25-80.757812-48.914063-57.292969-44.304687-96.6875-111.609375-110.925781-189.519531-1.066407-5.839844-1.96875-11.121094-2.753907-16.136719-.644531-4.09375-4.480469-6.894531-8.574219-6.25-4.09375.640625-6.894531 4.480469-6.25 8.574219.804688 5.144531 1.726563 10.542968 2.816407 16.507812 14.90625 81.558594 56.28125 152.121094 116.507812 198.691406 26.347657 20.375 54.515625 37.433594 83.730469 50.707032 31.621094 14.367187 68.050781 29.441406 104.617188 29.441406 2.75 0 5.507812-.085938 8.261718-.261719 23.390625-1.511719 44.277344-11.414062 59.921875-26.574219 1.316407 1.996094 2.707031 3.929688 4.199219 5.765626 5.722656 7.054687 14.027344 10.726562 22.433594 10.726562 6.089844 0 12.238281-1.929688 17.496094-5.898438 7.488281-5.652343 13.582031-12.957031 18.105468-21.714843 4.523438-8.753907 6.957032-17.949219 7.230469-27.328125.46875-15.679688-11.410156-28.757813-27.039063-29.773438zm6.476563 50.214844c-3.480469 6.742188-8.128906 12.335938-13.808594 16.625-6.042969 4.558594-14.492187 3.542969-19.242187-2.308594-2.035156-2.507812-3.863282-5.226562-5.507813-8.121094 8.761719-11.835937 14.824219-25.726562 17.339844-40.714843 3.378906-.554688 6.726563-.84375 10.027344-.84375 1.257812 0 2.503906.042969 3.742187.121093 7.523438.488282 13.238282 6.792969 13.015625 14.355469-.210937 7.117188-2.082031 14.144531-5.566406 20.886719zm0 0"/><path d="m82.175781 208.839844 57.175781-24.03125c7.019532-2.949219 12.472657-8.460938 15.351563-15.511719 2.878906-7.046875 2.835937-14.796875-.113281-21.820313-2.949219-7.019531-8.457032-12.46875-15.507813-15.347656-7.054687-2.878906-14.804687-2.839844-21.824219.113282l-57.175781 24.03125c-7.019531 2.949218-12.472656 8.457031-15.351562 15.507812-2.875 7.050781-2.835938 14.800781.113281 21.820312 2.953125 7.023438 8.460938 12.472657 15.511719 15.351563 3.480469 1.417969 7.125 2.128906 10.773437 2.128906 3.746094 0 7.488282-.746093 11.046875-2.242187zm-23.496093-21.050782c-1.398438-3.324218-1.417969-6.996093-.054688-10.335937s3.945312-5.949219 7.269531-7.347656l57.179688-24.03125c1.683593-.707031 3.457031-1.0625 5.230469-1.0625 1.726562 0 3.457031.335937 5.105468 1.007812 3.339844 1.363281 5.945313 3.945313 7.347656 7.269531 2.882813 6.867188-.355468 14.800782-7.21875 17.683594l-57.179687 24.03125c-3.324219 1.398438-6.996094 1.417969-10.335937.054688-3.339844-1.363282-5.949219-3.945313-7.34375-7.269532zm0 0"/><path d="m82.871094 303.472656c3.582031 1.523438 7.359375 2.285156 11.144531 2.285156 3.609375 0 7.222656-.695312 10.675781-2.089843l57.511719-23.214844c7.0625-2.851563 12.589844-8.28125 15.570313-15.289063 2.976562-7.011718 3.046874-14.757812.195312-21.820312s-8.277344-12.589844-15.289062-15.570312c-7.007813-2.976563-14.757813-3.046876-21.820313-.195313l-57.511719 23.214844c-7.0625 2.851562-12.59375 8.28125-15.570312 15.289062-2.976563 7.011719-3.046875 14.757813-.195313 21.820313 2.847657 7.0625 8.277344 12.589844 15.289063 15.570312zm-1.28125-31.523437c1.410156-3.320313 4.027344-5.890625 7.371094-7.242188l57.515624-23.214843c1.632813-.660157 3.34375-.988282 5.054688-.988282 1.792969 0 3.582031.359375 5.28125 1.082032 3.320312 1.410156 5.890625 4.027343 7.242188 7.375 1.351562 3.34375 1.316406 7.015624-.09375 10.335937-1.410157 3.320313-4.03125 5.890625-7.375 7.242187l-57.515626 23.214844c-3.34375 1.351563-7.015624 1.316406-10.332031-.09375-3.320312-1.410156-5.894531-4.027344-7.242187-7.375-1.351563-3.34375-1.320313-7.015625.09375-10.335937zm0 0"/><path d="m141.152344 381.246094c3.195312 1.167968 6.507812 1.75 9.808594 1.75 4.09375 0 8.171874-.890625 11.992187-2.667969l56.253906-26.125c14.257813-6.621094 20.46875-23.609375 13.847657-37.867187-6.621094-14.253907-23.605469-20.46875-37.867188-13.847657l-56.25 26.125c-14.257812 6.621094-20.472656 23.609375-13.851562 37.867188 3.207031 6.90625 8.914062 12.152343 16.066406 14.765625zm4.105468-39.023438 56.25-26.125c1.835938-.851562 3.765626-1.253906 5.667969-1.253906 5.097657 0 9.984375 2.894531 12.269531 7.816406 3.136719 6.753906.195313 14.800782-6.5625 17.933594l-56.25 26.125c-3.273437 1.519531-6.941406 1.675781-10.328124.4375-3.386719-1.242188-6.089844-3.722656-7.609376-6.996094-3.136718-6.753906-.191406-14.800781 6.5625-17.9375zm0 0"/><path d="m225.847656 450.433594c4.53125 0 9.121094-1.078125 13.386719-3.359375l54.707031-29.222657c13.867188-7.40625 19.121094-24.710937 11.714844-38.578124 0 0 0 0 0-.003907-7.40625-13.863281-24.714844-19.121093-38.582031-11.710937l-54.707031 29.222656c-13.863282 7.40625-19.117188 24.714844-11.714844 38.578125 5.128906 9.601563 15.003906 15.074219 25.195312 15.074219zm-6.410156-40.417969 54.707031-29.222656c2.023438-1.078125 4.195313-1.589844 6.34375-1.589844 4.828125 0 9.503907 2.589844 11.933594 7.140625 1.699219 3.179688 2.058594 6.835938 1.011719 10.285156-1.050782 3.453125-3.378906 6.289063-6.5625 7.988282l-54.707032 29.222656c-6.566406 3.507812-14.765624 1.019531-18.273437-5.546875-3.511719-6.570313-1.019531-14.769531 5.546875-18.277344zm0 0"/></svg>