<svg height="511pt" viewBox="-31 0 511 511.99887" width="511pt" xmlns="http://www.w3.org/2000/svg"><path d="m442.082031 477.078125c4.742188-9.1875 6.382813-17.75 6.589844-24.835937.355469-11.917969-8.734375-21.960938-20.632813-22.730469-9.503906-.617188-18.292968.863281-25.761718 3.085937-16.046875 4.78125-24.890625 21.902344-19.503906 37.753906 2.507812 7.378907 6.386718 15.402344 12.390624 22.796876 7.515626 9.257812 20.960938 10.859374 30.480469 3.675781 5.652344-4.269531 11.691407-10.5625 16.4375-19.746094zm0 0" fill="#a82b2b"/><path d="m81.574219 0c-10.339844 0-18.699219 2.476562-25.089844 5.539062-10.75 5.15625-15.5 17.84375-10.722656 28.765626 3.8125 8.726562 9.164062 15.859374 14.566406 21.472656 11.609375 12.0625 30.882813 12.0625 42.496094 0 5.402343-5.613282 10.75-12.746094 14.566406-21.472656 4.773437-10.921876.023437-23.609376-10.726563-28.765626-6.390624-3.0625-14.75-5.539062-25.089843-5.539062zm0 0" fill="#a82b2b"/><path d="m116.726562 35.753906c-3.753906 8.070313-8.804687 14.726563-13.902343 20.023438-11.617188 12.058594-30.886719 12.058594-42.492188 0-4.308593-4.472656-8.574219-9.902344-12.046875-16.332032 21.476563-10.070312 46.066406-10.675781 68.441406-3.691406zm0 0" fill="#8e2424"/><path d="m427.523438 429.492188c.257812 26.300781-10.160157 50.488281-27.390626 68.164062-1.835937-1.207031-3.515624-2.710938-4.96875-4.503906-5.996093-7.398438-9.882812-15.429688-12.386718-22.796875-5.390625-15.859375 3.453125-32.976563 19.5-37.757813 7.335937-2.175781 15.941406-3.648437 25.246094-3.105468zm0 0" fill="#8e2424"/><path d="m337.832031 334.050781c-30.328125-7.257812-57.832031-17.074219-82.933593-36.457031-40.382813-31.1875-63.382813-77.859375-70.816407-127.753906-4.800781-32.210938-.300781-59.675782-22.535156-86.855469-28.71875-35.109375-83.417969-46.582031-121.535156-19.4375-50.976563 36.304687-41.542969 114.613281-31.871094 167.53125 14.3125 78.332031 53.613281 150.839844 117.148437 199.964844 26.167969 20.234375 54.597657 37.625 84.722657 51.3125 34.621093 15.730469 73.851562 31.886719 112.59375 29.386719 49.699219-3.210938 87.382812-46.101563 84.171875-95.800782-2.558594-39.613281-31.535156-72.941406-68.945313-81.890625zm0 0" fill="#ea4444"/><path d="m329.460938 511.046875c30.332031-16.128906 50.027343-48.964844 47.675781-85.46875-2.554688-39.613281-19.742188-61.082031-57.148438-70.027344-30.332031-7.253906-69.632812-28.9375-94.738281-48.320312-40.375-31.183594-63.378906-77.847657-70.808594-127.75-4.800781-32.203125-.296875-59.679688-22.539062-86.855469-20.210938-24.726562-53.3125-37.71875-84.433594-33.773438 37.5-20.890624 87.183594-8.75 114.082031 24.136719 22.230469 27.175781 17.738281 54.640625 22.527344 86.847657 7.441406 49.898437 30.433594 96.574218 70.824219 127.757812 25.09375 19.386719 52.597656 29.195312 82.929687 36.460938 37.410157 8.945312 66.386719 42.273437 68.945313 81.890624 3.058594 47.382813-31.050782 88.585938-77.316406 95.101563zm0 0" fill="#d93131"/><g fill="#f89696"><path d="m144.894531 147.195312c4.628907 11.019532-.546875 23.707032-11.566406 28.335938l-58.90625 24.757812c-11.015625 4.632813-23.703125-.546874-28.335937-11.566406-4.628907-11.019531.546874-23.707031 11.566406-28.335937l58.90625-24.757813c11.015625-4.632812 23.703125.546875 28.335937 11.566406zm0 0"/><path d="m168.9375 245.851562c4.472656 11.085938-.882812 23.699219-11.96875 28.171876l-59.25 23.917968c-11.082031 4.472656-23.695312-.886718-28.167969-11.96875-4.476562-11.085937.882813-23.695312 11.96875-28.171875l59.25-23.914062c11.082031-4.476563 23.695313.882812 28.167969 11.964843zm0 0"/><path d="m225.84375 321.414062c5.035156 10.839844.328125 23.707032-10.511719 28.742188l-57.953125 26.914062c-10.839844 5.035157-23.710937.328126-28.742187-10.511718-5.035157-10.839844-.328125-23.710938 10.511719-28.746094l57.953124-26.914062c10.839844-5.03125 23.707032-.324219 28.742188 10.515624zm0 0"/><path d="m300.828125 386.632812c5.632813 10.542969 1.652344 23.65625-8.890625 29.285157l-56.359375 30.105469c-10.542969 5.632812-23.65625 1.652343-29.285156-8.890626-5.632813-10.542968-1.652344-23.65625 8.890625-29.285156l56.359375-30.105468c10.542969-5.632813 23.652343-1.652344 29.285156 8.890624zm0 0"/></g></svg>